{"title":"Gogglebox Au - S04E08","uid":16043730,"size":1213214703,"categoryP":"video","categoryS":"tv_shows","magnet":"?xt=urn:btih:61a571d0f26c9129ec12570884f6c03aae045aab&amp;dn=Gogglebox+Au+-+S04E08&amp;tr=udp%3A%2F%2Ftracker.leechers-paradise.org%3A6969&amp;tr=udp%3A%2F%2Fzer0day.ch%3A1337&amp;tr=udp%3A%2F%2Fopen.demonii.com%3A1337&amp;tr=udp%3A%2F%2Ftracker.coppersurfer.tk%3A6969&amp;tr=udp%3A%2F%2Fexodus.desync.com%3A6969","seeders":6,"leechers":1,"uploader":"Bullrout","files":1,"time":1476539844,"description":"Gogglebox Au - S04E08\r\n\r\nIn the season finale, the Goggleboxers share their reactions to TV highlights including The Great Australian Bake Off, 60 Days In, Hyde &amp; Seek, Air BnB: Dream or Nightmare, Body Hack and The X Factor.\r\n\r\nComplete name                            : Gogglebox Au - S04E08.mkv\r\nFormat                                   : Matroska\r\nFormat version                           : Version 4 / Version 2\r\nFile size                                : 1.13 GiB\r\nDuration                                 : 49 min 44 s\r\nOverall bit rate mode                    : Variable\r\nOverall bit rate                         : 3 252 kb/s\r\nEncoded date                             : UTC 2016-10-14 07:19:04\r\nWriting application                      : mkvmerge v9.4.2 ('So High') 64bit\r\nWriting library                          : libebml v1.3.4 + libmatroska v1.4.5\r\n\r\nVideo\r\nID                                       : 2\r\nFormat                                   : AVC\r\nFormat/Info                              : Advanced Video Codec\r\nFormat profile                           :   \r\nFormat settings, CABAC                   : Yes\r\nFormat settings, ReFrames                : 3 frames\r\nCodec ID                                 : V_MPEG4/ISO/AVC\r\nDuration                                 : 49 min 44 s\r\nBit rate mode                            : Variable\r\nBit rate                                 : 2 866 kb/s\r\nMaximum bit rate                         : 3 000 kb/s\r\nWidth                                    : 1 280 pixels\r\nHeight                                   : 720 pixels\r\nDisplay aspect ratio                     : 16:9\r\nFrame rate mode                          : Constant\r\nFrame rate                               : 25.000 FPS\r\nStandard                                 : PAL\r\nColor space                              : YUV\r\nChroma subsampling                       : 4:2:0\r\nBit depth                                : 8 bits\r\nScan type                                : Progressive\r\nBits/(Pixel*Frame)                       : 0.124\r\nStream size                              : 1 020 MiB (88%)\r\nWriting library                          : x264 core 112\r\nDefault                                  : Yes\r\nForced                                   : No\r\nColor range                              : Limited\r\nColor primaries                          : BT.709\r\nTransfer characteristics                 : BT.709\r\nMatrix coefficients                      : BT.709\r\n\r\nAudio\r\nID                                       : 1\r\nFormat                                   : AC-3\r\nFormat/Info                              : Audio Coding 3\r\nMode extension                           : CM (complete main)\r\nFormat settings, Endianness              : Big\r\nCodec ID                                 : A_AC3\r\nDuration                                 : 49 min 44 s\r\nBit rate mode                            : Constant\r\nBit rate                                 : 384 kb/s\r\nChannel(s)                               : 6 channels\r\nChannel positions                        : Front: L C R, Side: L R, LFE\r\nSampling rate                            : 48.0 kHz\r\nFrame rate                               : 31.250 FPS (1536 spf)\r\nCompression mode                         : Lossy\r\nStream size                              : 137 MiB (12%)\r\nDefault                                  : Yes\r\nForced                                   : No","torrent":{"xt":"urn:btih:61a571d0f26c9129ec12570884f6c03aae045aab","amp;dn":"Gogglebox+Au+-+S04E08","amp;tr":["udp%3A%2F%2Ftracker.leechers-paradise.org%3A6969","udp%3A%2F%2Fzer0day.ch%3A1337","udp%3A%2F%2Fopen.demonii.com%3A1337","udp%3A%2F%2Ftracker.coppersurfer.tk%3A6969","udp%3A%2F%2Fexodus.desync.com%3A6969"],"infoHash":"61a571d0f26c9129ec12570884f6c03aae045aab","infoHashBuffer":{"type":"Buffer","data":[97,165,113,208,242,108,145,41,236,18,87,8,132,246,192,58,174,4,90,171]},"announce":[],"urlList":[]}}